<svg xmlns="http://www.w3.org/2000/svg" viewBox="0 0 100 100" width="500" height="500" class="illustration"><defs><style>.cls-1{fill:#201d1d;}.cls-1,.cls-2,.cls-3{stroke:#201d1d;}.cls-1,.cls-2,.cls-3,.cls-4,.cls-5,.cls-6{stroke-miterlimit:10;stroke-width:1.5px;}.cls-2{fill:#3781f7;}.cls-3{fill:#fff;}.cls-4,.cls-6{fill:none;}.cls-4{stroke:#221f20;}.cls-5{fill:#545454;}.cls-5,.cls-6{stroke:#231f20;}</style></defs><g id="Layer_2" data-name="Layer 2"><path class="cls-1" d="M18.44,46.29V40.75h63.2V79.42a4,4,0,0,1-4,4H22.44a4,4,0,0,1-4-4V53"></path><path class="cls-2" d="M85.75,25v3.65H14.26V25.07A5.05,5.05,0,0,1,19.33,20H80.65A5.07,5.07,0,0,1,85.75,25Z"></path><path class="cls-3" d="M14.25,38V31.74h71.5V75.48A4.53,4.53,0,0,1,81.23,80H18.77a4.53,4.53,0,0,1-4.52-4.52V45.59"></path><path class="cls-4" d="M18.77,80H81.23a4.53,4.53,0,0,0,4.52-4.52V31.74"></path><line class="cls-4" x1="17.79" y1="24.56" x2="21.77" y2="24.56"></line><line class="cls-4" x1="23.3" y1="24.56" x2="27.28" y2="24.56"></line><line class="cls-4" x1="28.82" y1="24.56" x2="32.79" y2="24.56"></line><line class="cls-5" x1="24.39" y1="36.82" x2="24.39" y2="47.73"></line><line class="cls-5" x1="38.12" y1="36.82" x2="38.12" y2="47.73"></line><line class="cls-5" x1="41.8" y1="36.82" x2="41.8" y2="47.73"></line><line class="cls-5" x1="45.48" y1="36.82" x2="45.48" y2="47.73"></line><rect class="cls-6" x="28.07" y="36.95" width="6.36" height="10.65" rx="3.18"></rect><rect class="cls-6" x="49.16" y="36.95" width="6.36" height="10.65" rx="3.18"></rect><rect class="cls-6" x="59.21" y="36.95" width="6.36" height="10.65" rx="3.18"></rect><rect class="cls-6" x="69.25" y="36.95" width="6.36" height="10.65" rx="3.18"></rect><line class="cls-5" x1="75.61" y1="60.9" x2="75.61" y2="49.99"></line><line class="cls-5" x1="62.11" y1="60.9" x2="62.11" y2="49.99"></line><line class="cls-5" x1="58.54" y1="60.9" x2="58.54" y2="49.99"></line><line class="cls-5" x1="54.97" y1="60.9" x2="54.97" y2="49.99"></line><line class="cls-5" x1="41.46" y1="60.9" x2="41.46" y2="49.99"></line><line class="cls-5" x1="37.89" y1="60.9" x2="37.89" y2="49.99"></line><line class="cls-5" x1="34.32" y1="60.9" x2="34.32" y2="49.99"></line><rect class="cls-6" x="65.68" y="50.12" width="6.36" height="10.65" rx="3.18" transform="translate(137.72 110.9) rotate(180)"></rect><rect class="cls-6" x="45.03" y="50.12" width="6.36" height="10.65" rx="3.18" transform="translate(96.43 110.9) rotate(-180)"></rect><rect class="cls-6" x="24.39" y="50.12" width="6.36" height="10.65" rx="3.18" transform="translate(55.14 110.9) rotate(-180)"></rect><line class="cls-5" x1="24.39" y1="64.05" x2="24.39" y2="74.96"></line><line class="cls-5" x1="38.12" y1="64.05" x2="38.12" y2="74.96"></line><line class="cls-5" x1="41.8" y1="64.05" x2="41.8" y2="74.96"></line><line class="cls-5" x1="45.48" y1="64.05" x2="45.48" y2="74.96"></line><rect class="cls-6" x="28.07" y="64.18" width="6.36" height="10.65" rx="3.18"></rect><rect class="cls-6" x="59.21" y="64.18" width="6.36" height="10.65" rx="3.18"></rect><rect class="cls-6" x="69.25" y="64.18" width="6.36" height="10.65" rx="3.18"></rect><rect class="cls-6" x="49.16" y="64.18" width="6.36" height="10.65" rx="3.18"></rect></g></svg>